<?xml version="1.0" encoding="utf-8"?>
<!-- Generator: Adobe Illustrator 23.0.1, SVG Export Plug-In . SVG Version: 6.00 Build 0)  -->
<svg version="1.1" id="Layer_1" xmlns="http://www.w3.org/2000/svg" xmlns:xlink="http://www.w3.org/1999/xlink" x="0px" y="0px"
	 viewBox="0 0 1000 1000" style="enable-background:new 0 0 1000 1000;" xml:space="preserve">
<style type="text/css">
	.st0{fill-rule:evenodd;clip-rule:evenodd;fill:#78BC43;}
</style>
<path class="st0" d="M654.1,127.6c-142.5,0-244.8,4-306.8,12.1c-47.5,5.9-76.5,25.6-87,59l-20.3,64.7c-3.7,11.9,2,17.7,17.2,17.7
	l0.5-0.1c11.3-1.4,54.7-5.7,128.8-11.5c98.1-7.8,170.8-11.8,218.6-11.8c141.1,0,200.7,35.3,178.4,106c-4.8,15.8-15.6,25.3-32,29.1
	C618,415.1,512,431,433.7,440.7c-220.6,27.8-348,96.6-382.3,206C4.3,797.1,122.2,872.4,405.1,872.4c141.1,0,259.5-8.3,355.2-24.4
	c55.2-9.2,99.5-52,110.6-87.5C950.4,296.3,1095.3,155.6,654.1,127.6z M668.7,730c-48,7.5-116.9,11.3-207,11.3
	c-156.2,0-224.6-31.5-204.8-94.6c14.2-45.3,55.1-72.5,123.3-81.6l355.4-47.7L668.7,730z"/>
</svg>
